HIERARCHY
ROOT Hips
{
	OFFSET	0.00	0.00	0.00
	CHANNELS 6 Xposition Yposition Zposition Zrotation Xrotation Yrotation
	JOINT LeftUpLeg
	{
		OFFSET	 0.126116	-0.014019	-0.065224
		CHANNELS 3 Zrotation Xrotation Yrotation
		JOINT LeftLeg
		{
			OFFSET	 0.000000	 0.000000	 0.569914
			CHANNELS 3 Zrotation Xrotation Yrotation
			JOINT LeftFoot
			{
				OFFSET	 0.000000	 0.000000	 0.544423
				CHANNELS 3 Zrotation Xrotation Yrotation
				JOINT LeftToeBase
				{
					OFFSET	 0.000000	 0.000000	 0.207117
					CHANNELS 3 Zrotation Xrotation Yrotation
					End Site
					{
						OFFSET	 0.000000	 0.000000	 0.207117
					}
				}
			}
		}
	}
	JOINT RightUpLeg
	{
		OFFSET	-0.124023	-0.008373	-0.065224
		CHANNELS 3 Zrotation Xrotation Yrotation
		JOINT RightLeg
		{
			OFFSET	 0.000000	 0.000000	 0.570047
			CHANNELS 3 Zrotation Xrotation Yrotation
			JOINT RightFoot
			{
				OFFSET	 0.000000	 0.000000	 0.544354
				CHANNELS 3 Zrotation Xrotation Yrotation
				JOINT RightToeBase
				{
					OFFSET	 0.000000	 0.000000	 0.207540
					CHANNELS 3 Zrotation Xrotation Yrotation
					End Site
					{
						OFFSET	 0.000000	 0.000000	 0.207540
					}
				}
			}
		}
	}
	JOINT Spine
	{
		OFFSET	 0.000184	-0.007763	 0.117403
		CHANNELS 3 Zrotation Xrotation Yrotation
		JOINT Spine1
		{
			OFFSET	 0.000000	 0.000000	 0.137269
			CHANNELS 3 Zrotation Xrotation Yrotation
			JOINT Spine2
			{
				OFFSET	 0.000000	 0.000000	 0.156879
				CHANNELS 3 Zrotation Xrotation Yrotation
				JOINT LeftShoulder
				{
					OFFSET	 0.080501	-0.002496	 0.160144
					CHANNELS 3 Zrotation Xrotation Yrotation
					JOINT LeftArm
					{
						OFFSET	 0.000000	 0.000000	 0.164363
						CHANNELS 3 Zrotation Xrotation Yrotation
						JOINT LeftForeArm
						{
							OFFSET	 0.000000	 0.000000	 0.364576
							CHANNELS 3 Zrotation Xrotation Yrotation
							JOINT LeftHand
							{
								OFFSET	 0.000000	 0.000000	 0.360812
								CHANNELS 3 Zrotation Xrotation Yrotation
								JOINT LeftHandIndex1
								{
									OFFSET	 0.000000	 0.000000	 0.086006
									CHANNELS 3 Zrotation Xrotation Yrotation
									JOINT LeftHandIndex2
									{
										OFFSET	 0.000000	 0.000000	 0.047237
										CHANNELS 3 Zrotation Xrotation Yrotation
										JOINT LeftHandIndex3
										{
											OFFSET	-0.004284	-0.000551	 0.038165
											CHANNELS 3 Zrotation Xrotation Yrotation
											End Site
											{
												OFFSET	-0.004284	-0.000551	 0.038165
											}
										}
									}
								}
							}
						}
					}
				}
				JOINT Neck
				{
					OFFSET	 0.000000	 0.000000	 0.176489
					CHANNELS 3 Zrotation Xrotation Yrotation
					JOINT Head
					{
						OFFSET	 0.000000	-0.001747	 0.077940
						CHANNELS 3 Zrotation Xrotation Yrotation
						End Site
						{
							OFFSET	 0.000000	-0.001747	 0.077940
						}
					}
				}
				JOINT RightShoulder
				{
					OFFSET	-0.080363	 0.000306	 0.159706
					CHANNELS 3 Zrotation Xrotation Yrotation
					JOINT RightArm
					{
						OFFSET	 0.000000	 0.000000	 0.164196
						CHANNELS 3 Zrotation Xrotation Yrotation
						JOINT RightForeArm
						{
							OFFSET	 0.000000	 0.000000	 0.365611
							CHANNELS 3 Zrotation Xrotation Yrotation
							JOINT RightHand
							{
								OFFSET	 0.000000	 0.000000	 0.360648
								CHANNELS 3 Zrotation Xrotation Yrotation
								JOINT RightHandIndex1
								{
									OFFSET	 0.000000	 0.000000	 0.069977
									CHANNELS 3 Zrotation Xrotation Yrotation
									JOINT RightHandIndex2
									{
										OFFSET	 0.000000	 0.000000	 0.052305
										CHANNELS 3 Zrotation Xrotation Yrotation
										JOINT RightHandIndex3
										{
											OFFSET	 0.009002	-0.000782	 0.042196
											CHANNELS 3 Zrotation Xrotation Yrotation
											End Site
											{
												OFFSET	 0.009002	-0.000782	 0.042196
											}
										}
									}
								}
							}
						}
					}
				}
			}
		}
	}
}
MOTION
Frames:    5
Frame Time: 0.03333334
-0.642464	-0.127177	 1.250375	-160.886800	 8.947083	 9.910413	 15.692220	-17.887310	 163.464800	-8.929542	-31.680400	-3.677597	-75.824200	 77.628200	 72.961260	-2.385833	 28.452760	 0.000004	-2.173892	-51.791120	 174.009200	-26.081890	-58.274800	-12.996500	 34.142780	 40.376470	-39.163280	 2.384659	 28.388700	-0.000001	 63.119410	-20.883110	-15.910580	 45.632240	 28.071310	 1.697701	-3.999000	-4.254521	-5.896349	-91.776080	 78.527420	 179.999900	 10.502210	 29.729280	-46.092430	-16.991870	 1.067385	-5.600187	 8.231757	-2.994429	-4.326590	-4.131196	 21.524690	 0.986298	-5.167839	 0.733520	 3.519257	-1.378229	 35.397820	-2.634230	-13.973900	 16.379070	-7.908211	-25.094150	 3.571470	 5.279943	 89.782140	 78.203900	 180.000000	 5.517792	 57.060120	-0.874507	 6.540579	 0.999638	 5.644552	 92.498590	-14.256960	-4.126489	 5.715225	 19.176060	-3.692089	 5.027514	 0.245388	-9.378011	-2.350882	 35.473990	 5.254307
-0.640507	-0.124966	 1.251199	-162.400700	 9.056816	 10.131460	 18.989420	-18.296630	 163.503300	-7.876885	-31.271520	-3.083544	-94.677110	 79.416130	 90.249090	-2.385833	 28.452760	 0.000004	-4.666620	-51.825870	 172.417300	-19.505080	-58.344710	-7.339712	 44.675150	 49.849930	-43.370780	 2.384659	 28.388700	-0.000001	 63.932360	-21.876750	-17.052670	 45.895390	 30.140810	 2.115986	-4.040925	-4.832598	-5.972749	-91.776190	 78.527380	-180.000000	 10.133120	 29.736060	-46.055310	-15.736790	 1.049682	-5.582367	 9.058114	-2.519223	-4.682656	-4.131196	 21.524690	 0.986298	-5.167839	 0.733520	 3.519257	-1.378229	 35.397820	-2.634230	-14.009440	 16.511630	-7.702034	-25.031260	 3.261118	 4.755393	 89.782080	 78.203870	-180.000000	 5.828682	 57.479770	-0.911111	 4.330449	 0.973573	 5.620799	 90.978270	-12.941690	-0.262055	 5.715225	 19.176060	-3.692089	 5.027514	 0.245388	-9.378011	-2.350882	 35.473990	 5.254307
-0.637093	-0.121625	 1.251321	-163.401500	 9.841762	 9.217594	 21.104180	-18.371750	 164.827300	-5.813069	-30.468850	-1.960004	-134.279500	 80.273120	 127.173300	-2.385833	 28.452760	 0.000004	-1.667480	-52.543800	 174.847300	-17.933760	-58.023760	-5.974661	 52.615230	 53.310390	-48.872900	 2.384659	 28.388700	-0.000001	 65.266690	-22.379880	-15.591530	 45.758970	 30.496850	 2.801828	-3.938792	-4.760791	-6.823553	-91.776180	 78.527420	-180.000000	 9.984204	 29.714470	-46.252140	-14.856090	 1.029820	-5.552303	 9.651931	-2.122029	-4.967555	-4.131196	 21.524690	 0.986298	-5.167839	 0.733520	 3.519257	-1.378229	 35.397820	-2.634230	-13.768800	 17.115660	-7.911654	-24.893270	 3.216377	 5.554575	 89.782080	 78.203900	-180.000000	 4.968760	 57.642960	 0.278916	 2.705853	 0.946919	 5.586946	 88.684980	-13.254310	 2.201182	 5.715225	 19.176060	-3.692089	 5.027514	 0.245388	-9.378011	-2.350882	 35.473990	 5.254307
-0.631701	-0.115900	 1.251166	-162.825400	 9.408384	 6.730989	 21.037970	-15.580250	 166.850700	-3.785929	-28.448400	-0.873798	-164.755800	 77.711850	 155.743000	-2.385833	 28.452760	 0.000004	 5.717711	-51.158110	-178.532500	-17.541450	-57.894730	-5.632594	 62.476240	 54.475930	-56.928670	 2.384659	 28.388700	-0.000001	 66.040040	-21.523260	-12.150580	 45.529870	 30.808970	 0.569936	-3.616777	-5.451595	-6.013475	-91.776210	 78.527380	-180.000000	 10.168720	 29.266820	-46.587890	-14.228200	 1.003815	-5.499148	 10.163840	-1.718611	-5.240438	-4.131196	 21.524690	 0.986298	-5.167839	 0.733520	 3.519257	-1.378229	 35.397820	-2.634230	-13.139800	 17.111670	-8.645327	-24.879660	 3.867631	 7.832823	 89.782100	 78.203870	 180.000000	 2.739793	 57.742690	 2.787946	 2.405049	 0.923557	 5.533027	 87.677360	-15.972830	 6.577725	 5.715225	 19.176060	-3.692089	 5.027514	 0.245388	-9.378011	-2.350882	 35.473990	 5.254307
-0.622659	-0.108425	 1.250793	-163.034400	 8.933064	 7.603290	 24.284760	-15.391010	 165.232800	-7.434845	-27.445880	-2.533150	-139.735600	 83.428600	 133.713600	-2.385833	 28.452760	 0.000004	 7.067789	-49.317560	-178.889900	-17.288140	-56.651850	-5.342742	 65.784840	 55.871450	-58.994700	 2.384659	 28.388700	-0.000001	 65.870570	-20.637100	-12.984130	 45.396000	 29.638090	 0.789168	-3.328994	-4.677608	-5.750014	-91.776150	 78.527380	 179.999900	 10.971970	 28.617170	-47.248500	-13.860810	 0.972785	-5.430666	 10.342490	-1.441783	-5.430394	-4.131196	 21.524690	 0.986298	-5.167839	 0.733520	 3.519257	-1.378229	 35.397820	-2.634230	-12.695350	 17.228830	-9.384202	-24.962040	 3.696336	 8.973582	 89.782100	 78.203920	 180.000000	 0.583131	 57.628800	 5.035329	 5.146468	 0.917584	 5.471582	 89.973120	-23.383290	 11.093890	 5.715225	 19.176060	-3.692089	 5.027514	 0.245388	-9.378011	-2.350882	 35.473990	 5.254307
